<svg xmlns="http://www.w3.org/2000/svg" viewBox="0 0 64 64" width="64" height="64">
  <circle cx="32" cy="32" r="30" fill="#000"></circle>
  <path d="M32 10a22 22 0 0 0-7 42.7c0-1 .2-1.8.6-2.7A18 18 0 1 1 40 32c0 5-2.4 9.5-6.3 12.4a3.5 3.5 0 0 0-.7 4.7 22 22 0 0 0-1-39.1z" fill="#00FFD1"></path>
  <path d="M32 16a16 16 0 0 0 0 32 16 16 0 0 0 0-32zm0 28a12 12 0 1 1 0-24 12 12 0 0 1 0 24z" fill="#fff"></path>
  <path d="M27 24a5 5 0 1 1 10 0v2h-2v-2a3 3 0 1 0-6 0v2h-2v-2z" fill="#00FFD1"></path>
</svg>
